<svg width="18" height="27" viewBox="0 0 18 27" fill="none" xmlns="http://www.w3.org/2000/svg">
<path d="M6.90332 26.5002H17.1958C17.3395 26.5002 17.4773 26.4431 17.5789 26.3415C17.6805 26.2399 17.7375 26.1021 17.7375 25.9585V15.9585L6.90332 23.0007V26.5002Z" fill="#334155"/>
<path d="M17.1958 4.83154H6.90332V21.7112L7.98674 21.0071V9.70694C7.98674 9.56327 8.04379 9.42552 8.14538 9.32393C8.24697 9.22234 8.38478 9.16523 8.52845 9.16523H15.029C15.1727 9.16523 15.3105 9.22234 15.4121 9.32393C15.5136 9.42552 15.5707 9.56327 15.5707 9.70694V16.0775L17.7375 14.669V5.37325C17.7375 5.30212 17.7235 5.23174 17.6963 5.16601C17.669 5.10029 17.6292 5.04055 17.5789 4.99025C17.5286 4.93994 17.4689 4.90003 17.4031 4.87281C17.3374 4.84558 17.267 4.83154 17.1958 4.83154Z" fill="#334155"/>
<path d="M10.6953 13.4989H12.8621C13.0058 13.4989 13.1436 13.4418 13.2452 13.3402C13.3468 13.2387 13.4038 13.1009 13.4038 12.9572C13.4038 12.8136 13.3468 12.6758 13.2452 12.5742C13.1436 12.4726 13.0058 12.4155 12.8621 12.4155H10.6953C10.5516 12.4155 10.4138 12.4726 10.3122 12.5742C10.2106 12.6758 10.1536 12.8136 10.1536 12.9572C10.1536 13.1009 10.2106 13.2387 10.3122 13.3402C10.4138 13.4418 10.5516 13.4989 10.6953 13.4989Z" fill="#334155"/>
<path d="M10.6953 15.6659H12.8621C13.0058 15.6659 13.1436 15.6088 13.2452 15.5072C13.3468 15.4056 13.4038 15.2679 13.4038 15.1242C13.4038 14.9806 13.3468 14.8428 13.2452 14.7412C13.1436 14.6396 13.0058 14.5825 12.8621 14.5825H10.6953C10.5516 14.5825 10.4138 14.6396 10.3122 14.7412C10.2106 14.8428 10.1536 14.9806 10.1536 15.1242C10.1536 15.2679 10.2106 15.4056 10.3122 15.5072C10.4138 15.6088 10.5516 15.6659 10.6953 15.6659Z" fill="#334155"/>
<path d="M10.6953 17.8324H11.237C11.3807 17.8324 11.5185 17.7753 11.6201 17.6737C11.7216 17.5722 11.7787 17.4344 11.7787 17.2907C11.7787 17.1471 11.7216 17.0093 11.6201 16.9077C11.5185 16.8061 11.3807 16.749 11.237 16.749H10.6953C10.5516 16.749 10.4138 16.8061 10.3122 16.9077C10.2106 17.0093 10.1536 17.1471 10.1536 17.2907C10.1536 17.4344 10.2106 17.5722 10.3122 17.6737C10.4138 17.7753 10.5516 17.8324 10.6953 17.8324Z" fill="#334155"/>
<path d="M0.706229 0.552046C0.615058 0.596717 0.538275 0.666075 0.484638 0.752277C0.431001 0.83848 0.402636 0.938005 0.402839 1.03953V21.6245C0.402412 21.706 0.420771 21.7865 0.456468 21.8598C0.492166 21.9331 0.544246 21.9972 0.608692 22.0471L5.81995 26.2182V4.24642L1.28041 0.616982C1.20002 0.554204 1.10383 0.514982 1.00248 0.503508C0.901129 0.492035 0.798616 0.508827 0.706229 0.552046Z" fill="#334155"/>
</svg>
