<svg width="23" height="23" viewBox="0 0 23 23" fill="none" xmlns="http://www.w3.org/2000/svg">
<path d="M21.1851 15.1357C19.7838 15.1393 18.3909 14.9187 17.0593 14.4823C16.7552 14.3741 16.4272 14.3518 16.1113 14.4179C15.7953 14.4841 15.5038 14.6363 15.2687 14.8575L12.6553 16.8294C9.84977 15.4252 7.57455 13.1502 6.17033 10.3446L8.08196 7.79161C8.32195 7.55562 8.49108 7.25714 8.57019 6.92998C8.64931 6.60283 8.63525 6.26003 8.52962 5.94045C8.09324 4.60884 7.87267 3.21611 7.87628 1.81483C7.87628 1.33351 7.68508 0.872037 7.34473 0.531689C7.00438 0.191342 6.54277 4.47308e-10 6.06145 4.47308e-10H1.82684C1.58749 -5.31847e-06 1.3505 0.0474612 1.12952 0.139421C0.908542 0.23138 0.707944 0.366018 0.539262 0.535825C0.37058 0.705631 0.23715 0.907074 0.146661 1.12866C0.0561717 1.35024 0.0104076 1.5876 0.0120032 1.82694C0.0184077 7.44042 2.25119 12.822 6.22052 16.7913C10.1899 20.7607 15.5716 22.9936 21.1851 23C21.6664 23 22.128 22.8087 22.4683 22.4683C22.8087 22.128 22.9999 21.6665 22.9999 21.1852V16.9627C23.0015 16.7233 22.9557 16.486 22.8652 16.2644C22.7747 16.0428 22.6413 15.8414 22.4726 15.6715C22.304 15.5017 22.1034 15.3671 21.8824 15.2751C21.6614 15.1832 21.4244 15.1357 21.1851 15.1357Z" fill="#334155"/>
</svg>
