<svg width="23" height="23" viewBox="0 0 23 23" fill="none" xmlns="http://www.w3.org/2000/svg">
<path d="M11.5 0C9.22553 0 7.00212 0.674352 5.11096 1.93799C3.21979 3.20162 1.7458 4.99777 0.875393 7.09912C0.00498492 9.20047 -0.222756 11.5129 0.220974 13.7437C0.664704 15.9744 1.75998 18.0235 3.36828 19.6318C4.97659 21.2401 7.02568 22.3353 9.25647 22.7791C11.4872 23.2228 13.7995 22.9949 15.9009 22.1245C18.0022 21.2541 19.7983 19.7803 21.0619 17.8892C22.3256 15.998 23 13.7745 23 11.5C22.9974 8.45082 21.7849 5.52719 19.6288 3.37109C17.4727 1.215 14.5492 0.00264801 11.5 0ZM17.5 12H11.5C11.3674 12 11.2402 11.9473 11.1465 11.8535C11.0527 11.7597 11 11.6326 11 11.5V3.5C11 3.36739 11.0527 3.24025 11.1465 3.14648C11.2402 3.05272 11.3674 3 11.5 3C11.6326 3 11.7598 3.05272 11.8536 3.14648C11.9473 3.24025 12 3.36739 12 3.5V11H17.5C17.6326 11 17.7598 11.0527 17.8536 11.1465C17.9473 11.2403 18 11.3674 18 11.5C18 11.6326 17.9473 11.7597 17.8536 11.8535C17.7598 11.9473 17.6326 12 17.5 12Z" fill="#334155"/>
</svg>
