<svg width="21" height="20" viewBox="0 0 21 20" fill="none" xmlns="http://www.w3.org/2000/svg">
<path d="M16.6856 13.6737C16.913 13.2874 17.2739 12.9972 17.7001 12.8584C18.1264 12.7197 18.5887 12.7418 18.9999 12.9203C19.331 11.9818 19.5047 10.9954 19.5142 10.0002C19.5041 8.99915 19.3303 8.00629 18.9999 7.06128C18.5981 7.20497 18.1589 7.2044 17.7576 7.05949C17.3563 6.91459 17.0179 6.63434 16.8006 6.26713C16.5833 5.89993 16.5007 5.4685 16.5668 5.04698C16.633 4.62547 16.8438 4.24031 17.1632 3.95733C15.8423 2.44368 14.0616 1.40471 12.0938 1C12.0938 1.48713 11.9003 1.95462 11.5558 2.29907C11.2114 2.64352 10.7442 2.83673 10.2571 2.83673C9.76995 2.83673 9.30277 2.64352 8.95832 2.29907C8.61387 1.95462 8.42036 1.48713 8.42036 1C6.45262 1.40471 4.67187 2.44368 3.35101 3.95733C3.67034 4.24031 3.88116 4.62547 3.94732 5.04698C4.01348 5.4685 3.93084 5.89993 3.71355 6.26713C3.49627 6.63434 3.15792 6.91459 2.7566 7.05949C2.35528 7.2044 1.91604 7.20497 1.51428 7.06128C1.18382 8.00629 1.0101 8.99915 1 10.0002C1.00945 10.9954 1.18322 11.9818 1.51428 12.9203C1.92548 12.7418 2.38775 12.7197 2.81402 12.8584C3.2403 12.9972 3.60114 13.2874 3.82854 13.6737C4.04523 14.0637 4.11253 14.5192 4.01789 14.9553C3.92325 15.3913 3.67314 15.7776 3.31426 16.0427C4.63513 17.5563 6.41587 18.5953 8.38362 19C8.38362 18.5129 8.57713 18.0458 8.92158 17.7014C9.26603 17.3569 9.73321 17.1633 10.2203 17.1633C10.7075 17.1633 11.1747 17.3569 11.5191 17.7014C11.8636 18.0458 12.0571 18.5129 12.0571 19C14.0248 18.5953 15.8056 17.5563 17.1264 16.0427C16.7797 15.7672 16.5441 15.3758 16.4631 14.9405C16.3821 14.5051 16.4611 14.0554 16.6856 13.6737V13.6737Z" stroke="#F8FAFC" stroke-width="1.2" stroke-linecap="round" stroke-linejoin="round"/>
<path d="M10.2572 13.6738C12.286 13.6738 13.9306 12.0291 13.9306 10.0004C13.9306 7.97156 12.286 6.3269 10.2572 6.3269C8.2284 6.3269 6.58374 7.97156 6.58374 10.0004C6.58374 12.0291 8.2284 13.6738 10.2572 13.6738Z" stroke="#F8FAFC" stroke-width="1.2" stroke-linecap="round" stroke-linejoin="round"/>
</svg>
