<svg width="41" height="19" viewBox="0 0 41 19" fill="none" xmlns="http://www.w3.org/2000/svg">
<path d="M39.6339 1.66177C39.4157 1.30662 39.1101 1.01343 38.7462 0.810031C38.3824 0.606632 37.9725 0.499885 37.5557 0.500018H16.0375C15.279 0.497787 14.5351 0.708117 13.8901 1.10726C13.2451 1.5064 12.7249 2.07819 12.3885 2.758L6.28483 14.9492C6.09813 15.3232 6.01003 15.7386 6.02886 16.1561C6.0477 16.5737 6.17285 16.9794 6.39246 17.335C6.61208 17.6907 6.91887 17.9845 7.28376 18.1884C7.64866 18.3922 8.05957 18.4994 8.47755 18.5H29.9957C30.7562 18.5015 31.502 18.2908 32.1495 17.892C32.797 17.4931 33.3205 16.9219 33.6612 16.242L39.7484 4.05079C39.9393 3.67717 40.0292 3.2602 40.0091 2.8411C39.989 2.422 39.8597 2.01541 39.6339 1.66177ZM19.8666 11.889L11.6848 15.1618C11.5823 15.1834 11.4764 15.1834 11.3739 15.1618C11.1569 15.203 10.9324 15.1562 10.7498 15.0319C10.5672 14.9076 10.4415 14.716 10.4003 14.499C10.3591 14.282 10.4057 14.0575 10.53 13.875C10.6543 13.6924 10.846 13.5666 11.063 13.5254L19.2448 10.2527C19.3456 10.1992 19.4564 10.1673 19.5702 10.1592C19.6839 10.1511 19.7982 10.1669 19.9055 10.2055C20.0128 10.2442 20.1108 10.3049 20.1933 10.3837C20.2758 10.4625 20.3409 10.5575 20.3845 10.663C20.428 10.7684 20.449 10.8821 20.4462 10.9961C20.4433 11.1102 20.4167 11.2222 20.3679 11.3253C20.3191 11.4284 20.2494 11.52 20.163 11.5946C20.0767 11.6691 19.9757 11.7248 19.8666 11.758V11.889ZM30.0284 14.9001C29.9514 15.0008 29.8524 15.0827 29.7389 15.1394C29.6255 15.1961 29.5007 15.226 29.3739 15.2273C29.1967 15.2285 29.024 15.1708 28.883 15.0635L25.6103 12.6089C25.4367 12.4787 25.3219 12.2852 25.2912 12.0704C25.2605 11.8556 25.3164 11.6372 25.4466 11.4636C25.5794 11.2935 25.7728 11.1817 25.9864 11.1511C26.1999 11.1206 26.417 11.1741 26.5921 11.3002L29.8648 13.7547C30.0384 13.8849 30.1532 14.0784 30.1838 14.2932C30.2145 14.508 30.1586 14.7265 30.0284 14.9001ZM34.6593 5.31082L26.1175 9.77806C25.3425 10.1361 24.5003 10.3259 23.6466 10.3346C22.3783 10.3252 21.148 9.89981 20.1448 9.12367L15.743 5.19657C15.6468 5.131 15.5657 5.04548 15.5052 4.94608C15.4446 4.84668 15.4059 4.73562 15.3918 4.62008C15.3776 4.50455 15.3882 4.38721 15.423 4.27611C15.4577 4.16502 15.5158 4.06256 15.5932 3.97569C15.6707 3.88882 15.7659 3.81952 15.8723 3.77234C15.9787 3.72517 16.0939 3.70111 16.2103 3.70203C16.3267 3.70295 16.4416 3.72868 16.5472 3.77753C16.6529 3.82639 16.7469 3.89719 16.823 3.98528L21.1921 7.86364C21.7847 8.31671 22.4908 8.59749 23.2327 8.67543C23.9746 8.75338 24.7237 8.6255 25.3975 8.30549L33.9066 3.87102C34.0938 3.79991 34.3005 3.79991 34.4877 3.87102C34.6749 3.94212 34.8295 4.07949 34.9223 4.25694C35.015 4.43439 35.0395 4.63954 34.991 4.83382C34.9426 5.0281 34.8246 5.19772 34.6593 5.31082Z" fill="#334155"/>
<path d="M8.10117 3.77259H1.55573C1.33873 3.77259 1.13063 3.68633 0.977188 3.53289C0.82375 3.37945 0.737549 3.17141 0.737549 2.95441C0.737549 2.73742 0.82375 2.52937 0.977188 2.37593C1.13063 2.22249 1.33873 2.13623 1.55573 2.13623H8.10117C8.31817 2.13623 8.52628 2.22249 8.67972 2.37593C8.83315 2.52937 8.91936 2.73742 8.91936 2.95441C8.91936 3.17141 8.83315 3.37945 8.67972 3.53289C8.52628 3.68633 8.31817 3.77259 8.10117 3.77259Z" fill="#334155"/>
<path d="M1.55579 16.8637C1.44848 16.865 1.34209 16.8436 1.24345 16.8014C1.14482 16.7591 1.05612 16.697 0.98306 16.6184C0.904454 16.5453 0.842007 16.4565 0.799734 16.3579C0.757461 16.2593 0.736298 16.1528 0.737606 16.0455C0.739649 15.8327 0.821388 15.6281 0.966697 15.4726C1.1224 15.3217 1.33074 15.2373 1.5476 15.2373C1.76447 15.2373 1.97281 15.3217 2.12851 15.4726C2.28121 15.6247 2.36916 15.8301 2.37397 16.0455C2.37343 16.2666 2.28515 16.4787 2.12851 16.6348C1.9748 16.7829 1.76927 16.865 1.55579 16.8637Z" fill="#334155"/>
<path d="M4.82845 10.318H1.55573C1.33873 10.318 1.13063 10.2317 0.977188 10.0783C0.82375 9.92486 0.737549 9.71682 0.737549 9.49982C0.737549 9.28283 0.82375 9.07478 0.977188 8.92134C1.13063 8.7679 1.33873 8.68164 1.55573 8.68164H4.82845C5.04545 8.68164 5.25355 8.7679 5.40699 8.92134C5.56043 9.07478 5.64663 9.28283 5.64663 9.49982C5.64663 9.71682 5.56043 9.92486 5.40699 10.0783C5.25355 10.2317 5.04545 10.318 4.82845 10.318Z" fill="#334155"/>
</svg>
